<svg xmlns="http://www.w3.org/2000/svg" xmlns:xlink="http://www.w3.org/1999/xlink" width="1080" zoomAndPan="magnify" viewBox="0 0 810 809.999993" height="1080" preserveAspectRatio="xMidYMid meet" version="1.0"><path fill="#f2b12e" d="M 202.90625 607.5 L 708.75 607.5 L 708.75 135 C 708.75 97.773438 678.476562 67.5 641.25 67.5 L 202.5 67.5 C 161.796875 67.5 101.25 94.464844 101.25 168.75 L 101.25 641.25 C 101.25 715.535156 161.796875 742.5 202.5 742.5 L 708.75 742.5 L 708.75 675 L 202.90625 675 C 187.3125 674.59375 168.75 668.453125 168.75 641.25 C 168.75 614.046875 187.3125 607.90625 202.90625 607.5 Z M 270 303.75 L 371.25 303.75 L 371.25 202.5 L 438.75 202.5 L 438.75 303.75 L 540 303.75 L 540 371.25 L 438.75 371.25 L 438.75 472.5 L 371.25 472.5 L 371.25 371.25 L 270 371.25 Z M 270 303.75 " fill-opacity="1" fill-rule="nonzero"/></svg>