<svg xmlns="http://www.w3.org/2000/svg" xmlns:xlink="http://www.w3.org/1999/xlink" width="1080" zoomAndPan="magnify" viewBox="0 0 810 809.999993" height="1080" preserveAspectRatio="xMidYMid meet" version="1.0"><defs><clipPath id="76b912be3d"><path d="M 50.625 0 L 759.375 0 L 759.375 810 L 50.625 810 Z M 50.625 0 " clip-rule="nonzero"/></clipPath></defs><g clip-path="url(#76b912be3d)"><path fill="#f2b12e" d="M 734.0625 126.5625 L 603.734375 126.5625 L 549.945312 36.78125 C 534.882812 13.964844 511.628906 0 485.050781 0 L 324.949219 0 C 298.371094 0 273.691406 13.964844 260.085938 36.78125 L 206.265625 126.5625 L 75.9375 126.5625 C 61.898438 126.5625 50.625 137.84375 50.625 151.875 L 50.625 177.1875 C 50.625 191.269531 61.898438 202.5 75.9375 202.5 L 101.25 202.5 L 101.25 708.75 C 101.25 764.675781 146.574219 810 202.5 810 L 607.5 810 C 663.425781 810 708.75 764.675781 708.75 708.75 L 708.75 202.5 L 734.0625 202.5 C 748.140625 202.5 759.375 191.269531 759.375 177.1875 L 759.375 151.875 C 759.375 137.84375 748.140625 126.5625 734.0625 126.5625 Z M 322.574219 80.492188 C 324.15625 77.726562 327.320312 75.9375 330.644531 75.9375 L 479.355469 75.9375 C 482.71875 75.9375 485.882812 77.71875 487.464844 80.484375 L 515.109375 126.5625 L 294.890625 126.5625 Z M 607.5 734.0625 L 202.5 734.0625 C 188.519531 734.0625 177.1875 722.730469 177.1875 708.75 L 177.1875 202.5 L 632.8125 202.5 L 632.8125 708.75 C 632.8125 722.671875 621.421875 734.0625 607.5 734.0625 Z M 405 658.125 C 418.992188 658.125 430.3125 646.804688 430.3125 632.8125 L 430.3125 303.75 C 430.3125 289.757812 418.992188 278.4375 405 278.4375 C 391.007812 278.4375 379.6875 289.828125 379.6875 303.75 L 379.6875 632.8125 C 379.6875 646.734375 391.078125 658.125 405 658.125 Z M 278.4375 658.125 C 292.359375 658.125 303.75 646.734375 303.75 632.8125 L 303.75 303.75 C 303.75 289.757812 292.429688 278.4375 278.4375 278.4375 C 264.445312 278.4375 253.125 289.828125 253.125 303.75 L 253.125 632.8125 C 253.125 646.734375 264.515625 658.125 278.4375 658.125 Z M 531.5625 658.125 C 545.554688 658.125 556.875 646.804688 556.875 632.8125 L 556.875 303.75 C 556.875 289.757812 545.554688 278.4375 531.5625 278.4375 C 517.570312 278.4375 506.25 289.828125 506.25 303.75 L 506.25 632.8125 C 506.25 646.734375 517.640625 658.125 531.5625 658.125 Z M 531.5625 658.125 " fill-opacity="1" fill-rule="nonzero"/></g></svg>