<svg height="24" id="svg8" version="1.1" viewBox="0 0 24 24" width="24" xmlns="http://www.w3.org/2000/svg" xmlns:cc="http://creativecommons.org/ns#" xmlns:dc="http://purl.org/dc/elements/1.1/" xmlns:rdf="http://www.w3.org/1999/02/22-rdf-syntax-ns#" xmlns:svg="http://www.w3.org/2000/svg"><defs id="defs2" fill="#f2b12e"/><g id="g2221" style="display:inline" transform="translate(0.00490964,-290.65039)"><path d="m 12,295.65039 c -2.82146,0 -5.25615,1.41579 -6.99609,2.90234 -0.86997,0.74328 -1.5714,1.51029 -2.07422,2.17969 -0.25141,0.3347 -0.45177,0.64368 -0.60547,0.9336 -0.43403,0.73326 -0.38896,1.31353 -0.004,1.98046 0.15428,0.29737 0.3571,0.61149 0.60937,0.94922 0.50455,0.67547 1.20522,1.44236 2.07618,2.18164 1.74191,1.47857 4.17753,2.87305 6.99414,2.87305 2.8166,0 5.25223,-1.39448 6.99414,-2.87305 0.87095,-0.73928 1.57162,-1.50617 2.07617,-2.18164 0.25227,-0.33773 0.45509,-0.65185 0.60937,-0.94922 0.4246,-0.73692 0.36391,-1.3434 -0.004,-1.98046 -0.1537,-0.28992 -0.35406,-0.5989 -0.60547,-0.9336 -0.50281,-0.6694 -1.20424,-1.43641 -2.07421,-2.17969 -1.73986,-1.48655 -4.17455,-2.90234 -6.99601,-2.90234 z m 0,2 c 2.13537,0 4.18885,1.13508 5.69727,2.42383 0.7542,0.64437 1.36792,1.31952 1.77343,1.85937 0.20276,0.26993 0.35405,0.50883 0.35141,0.73268 -0.003,0.22385 -0.15147,0.46195 -0.35336,0.73223 -0.40378,0.54056 -1.01631,1.21416 -1.76953,1.85351 -1.50645,1.2787 -3.559,2.39844 -5.69922,2.39844 -2.14022,0 -4.19277,-1.11974 -5.69922,-2.39844 -0.75322,-0.63941 -1.36575,-1.31301 -1.76953,-1.85357 -0.20189,-0.27028 -0.35072,-0.50838 -0.35336,-0.73223 -0.003,-0.22385 0.14865,-0.46275 0.35141,-0.73268 0.40551,-0.53985 1.01923,-1.215 1.77344,-1.85937 1.50841,-1.28869 3.56189,-2.42377 5.69726,-2.42377 z" id="path2208" style="color:#f2b12e;font-style:normal;font-variant:normal;font-weight:normal;font-stretch:normal;font-size:medium;line-height:normal;font-family:sans-serif;font-variant-ligatures:normal;font-variant-position:normal;font-variant-caps:normal;font-variant-numeric:normal;font-variant-alternates:normal;font-variant-east-asian:normal;font-feature-settings:normal;font-variation-settings:normal;text-indent:0;text-align:start;text-decoration:none;text-decoration-line:none;text-decoration-style:solid;text-decoration-color:#f2b12e;letter-spacing:normal;word-spacing:normal;text-transform:none;writing-mode:lr-tb;direction:ltr;text-orientation:mixed;dominant-baseline:auto;baseline-shift:baseline;text-anchor:start;white-space:normal;shape-padding:0;shape-margin:0;inline-size:0;clip-rule:nonzero;display:inline;overflow:visible;visibility:visible;opacity:1;isolation:auto;mix-blend-mode:normal;color-interpolation:sRGB;color-interpolation-filters:linearRGB;solid-color:#f2b12e;solid-opacity:1;vector-effect:none;fill:#f2b12e;fill-opacity:1;fill-rule:nonzero;stroke:none;stroke-linecap:round;stroke-linejoin:round;stroke-miterlimit:4;stroke-dasharray:none;stroke-dashoffset:0;stroke-opacity:1;color-rendering:auto;image-rendering:auto;shape-rendering:auto;text-rendering:auto;enable-background:accumulate;stop-color:#f2b12e;stop-opacity:1"/><path d="m 12.02539,299.625 c -1.645,0 -3,1.355 -3,3 0,1.645 1.355,3 3,3 1.64501,0 3,-1.355 3,-3 0,-1.645 -1.35499,-3 -3,-3 z m 0,2 c 0.56413,0 1,0.43587 1,1 0,0.56413 -0.43587,1 -1,1 -0.56413,0 -1,-0.43587 -1,-1 0,-0.56413 0.43587,-1 1,-1 z" id="path2211" style="color:#f2b12e;font-style:normal;font-variant:normal;font-weight:normal;font-stretch:normal;font-size:medium;line-height:normal;font-family:sans-serif;font-variant-ligatures:normal;font-variant-position:normal;font-variant-caps:normal;font-variant-numeric:normal;font-variant-alternates:normal;font-variant-east-asian:normal;font-feature-settings:normal;font-variation-settings:normal;text-indent:0;text-align:start;text-decoration:none;text-decoration-line:none;text-decoration-style:solid;text-decoration-color:#f2b12e;letter-spacing:normal;word-spacing:normal;text-transform:none;writing-mode:lr-tb;direction:ltr;text-orientation:mixed;dominant-baseline:auto;baseline-shift:baseline;text-anchor:start;white-space:normal;shape-padding:0;shape-margin:0;inline-size:0;clip-rule:nonzero;display:inline;overflow:visible;visibility:visible;opacity:1;isolation:auto;mix-blend-mode:normal;color-interpolation:sRGB;color-interpolation-filters:linearRGB;solid-color:#f2b12e;solid-opacity:1;vector-effect:none;fill:#f2b12e;fill-opacity:1;fill-rule:nonzero;stroke:none;stroke-linecap:round;stroke-linejoin:round;stroke-miterlimit:4;stroke-dasharray:none;stroke-dashoffset:0;stroke-opacity:1;color-rendering:auto;image-rendering:auto;shape-rendering:auto;text-rendering:auto;enable-background:accumulate;stop-color:#f2b12e;stop-opacity:1"/></g></svg>